<?xml version="1.0" encoding="utf-8"?>
<!-- Generator: Adobe Illustrator 28.3.0, SVG Export Plug-In . SVG Version: 6.00 Build 0)  -->
<svg version="1.1" id="Layer_1" xmlns="http://www.w3.org/2000/svg" xmlns:xlink="http://www.w3.org/1999/xlink" x="0px" y="0px"
	 viewBox="0 0 500 180" style="enable-background:new 0 0 500 180;" xml:space="preserve">
<style type="text/css">
	.st0{fill:#540D2A;}
	.st1{fill:#1D4F25;}
</style>
<g>
	<g>
		<g>
			<g>
				<path class="st0" d="M27.5,100.2V89.1h33.9v38.1c0,8.3-2.5,14.7-7.6,19.3c-5.1,4.5-12.7,6.8-22.9,6.8c-10.2,0-17.9-2.3-23.1-6.8
					C2.6,141.9,0,135.5,0,127.2V52.8c0-8.3,2.5-14.7,7.6-19.3c5.1-4.5,12.7-6.8,22.9-6.8c10.2,0,17.9,2.3,23.1,6.8
					c5.2,4.5,7.8,10.9,7.8,19.3V63h-13V52.8c0-9.9-5.9-14.9-17.7-14.9c-11.8,0-17.7,5-17.7,14.9v74.4c0,9.9,5.9,14.9,17.7,14.9
					c11.8,0,17.7-5,17.7-14.9v-27H27.5z"/>
			</g>
		</g>
		<g>
			<g>
				<path class="st0" d="M107.3,139.3v11.2H75.7v-11.2H85V40.7h-9.3V29.5h31.6v11.2H98v98.6H107.3z"/>
			</g>
		</g>
		<g>
			<g>
				<path class="st0" d="M149.1,100.2V89.1H183v38.1c0,8.3-2.5,14.7-7.6,19.3c-5.1,4.5-12.7,6.8-22.9,6.8c-10.2,0-17.9-2.3-23.1-6.8
					c-5.2-4.5-7.8-10.9-7.8-19.3V52.8c0-8.3,2.5-14.7,7.6-19.3c5.1-4.5,12.7-6.8,22.9-6.8c10.2,0,17.9,2.3,23.1,6.8
					c5.2,4.5,7.8,10.9,7.8,19.3V63h-13V52.8c0-9.9-5.9-14.9-17.7-14.9c-11.8,0-17.7,5-17.7,14.9v74.4c0,9.9,5.9,14.9,17.7,14.9
					c11.8,0,17.7-5,17.7-14.9v-27H149.1z"/>
			</g>
		</g>
		<g>
			<g>
				<path class="st0" d="M227.8,100.2V89.1h33.9v38.1c0,8.3-2.5,14.7-7.6,19.3c-5.1,4.5-12.7,6.8-22.9,6.8
					c-10.2,0-17.9-2.3-23.1-6.8c-5.2-4.5-7.8-10.9-7.8-19.3V52.8c0-8.3,2.5-14.7,7.6-19.3c5.1-4.5,12.7-6.8,22.9-6.8
					c10.2,0,17.9,2.3,23.1,6.8c5.2,4.5,7.8,10.9,7.8,19.3V63h-13V52.8c0-9.9-5.9-14.9-17.7-14.9c-11.8,0-17.7,5-17.7,14.9v74.4
					c0,9.9,5.9,14.9,17.7,14.9c11.8,0,17.7-5,17.7-14.9v-27H227.8z"/>
			</g>
		</g>
		<g>
			<polygon class="st0" points="292.9,29.5 279.9,29.5 279.9,150.5 327,150.5 327,139.3 292.9,139.3 			"/>
		</g>
		<g>
			<path class="st1" d="M409.7,131.3v12.8c0,10.8-4.8,23.7-27.7,23.7c-22.9,0-27.7-12.9-27.7-23.7v-12.8h-14.8v12.8
				c0,11.4,3.6,20.3,10.6,26.4c7.1,6.2,18,9.4,32.2,9.4c14.2,0,24.9-3.1,31.9-9.3c6.9-6.1,10.4-15,10.4-26.4v-12.8H409.7z"/>
		</g>
		<g>
			<g>
				<path class="st0" d="M424.5,93.3V35.9c0-11.4-3.6-20.3-10.6-26.4c-7.1-6.2-18-9.4-32.2-9.4c-14.2,0-24.9,3.1-31.9,9.3
					c-6.9,6.1-10.4,15-10.4,26.4v87.5h14.8V93.3H424.5z M354.2,35.9c0-10.8,4.8-23.7,27.7-23.7c22.9,0,27.7,12.9,27.7,23.7v45.3
					h-55.5V35.9z"/>
			</g>
		</g>
		<g>
			<g>
				<path class="st0" d="M500,127.2c0,17.4-10.5,26-31.4,26c-21,0-31.4-8.7-31.4-26v-15.8h13v16.6c0,4.5,1.5,7.9,4.7,10.4
					c3.1,2.5,7.7,3.7,13.8,3.7c6.1,0,10.7-1.2,13.8-3.7c3.1-2.5,4.7-5.9,4.7-10.1c0-4.3-0.5-7.7-1.4-10.2c-0.9-2.5-2.8-5.2-5.7-8.1
					l-32.7-32c-3.8-3.8-6.5-7.6-7.9-11.3c-1.4-3.7-2.1-8.3-2.1-13.9c0-8.3,2.6-14.7,7.7-19.3c5.1-4.5,12.9-6.8,23.3-6.8
					c20,0,29.9,8.7,29.9,26v15.8h-13V52.1c0-4.5-1.5-7.9-4.4-10.4c-2.9-2.5-7.3-3.7-13.1-3.7c-5.8,0-10.2,1.2-13.1,3.7
					c-2.9,2.5-4.4,5.9-4.4,10.2c0,4.3,0.4,7.8,1.3,10.2c0.9,2.5,2.8,5.1,5.8,7.8l33.3,32c3.6,4,6.1,7.8,7.4,11.4
					C499.3,117,500,121.6,500,127.2z"/>
			</g>
		</g>
		<g>
			<g>
				<circle class="st1" cx="370.3" cy="132" r="8.5"/>
				<circle class="st1" cx="393.6" cy="132" r="8.5"/>
			</g>
		</g>
		<g>
			<circle class="st1" cx="91.5" cy="12.5" r="8.5"/>
		</g>
	</g>
</g>
</svg>
